<svg xmlns="http://www.w3.org/2000/svg" viewBox="0 0 64 64" shape-rendering="crispEdges">
  <path d="M4 27 14 21l5 6 6-10 6 12 7-5 4 9" fill="none" stroke="#49241f" stroke-width="12" stroke-linejoin="miter"/>
  <path d="M4 27 14 21l5 6 6-10 6 12 7-5 4 9" fill="none" stroke="#f2a35f" stroke-width="6" stroke-linejoin="miter"/>
  <path d="m5 27 8-5" stroke="#fff0c8" stroke-width="2"/>
  <path d="M43 25 51 18l8 5-3 9 3 8-10-1-7 5-2-10Z" fill="#402622" stroke="#ffd28e" stroke-width="3" stroke-linejoin="miter"/>
  <path d="m49 28 3 3-3 4-3-4z" fill="#fff0c8"/>
  <path d="m17 11 2 5 5 2-5 2-2 5-2-5-5-2 5-2zm32 39 2 4 4 2-4 1-2 5-2-5-4-1 4-2z" fill="#ffd48b"/>
  <path d="M33 8h5v5h-5zM29 45h6v5h-6zM7 40h5v5H7z" fill="#ed895b" stroke="#49241f" stroke-width="2"/>
</svg>
